#!OML:ASF E:\Steps\Project 1\Capture day 1\Session 2\Subject.ASF
:FULLY-SPECIFIED
:DEGREES
79
root 8.80187 16.3222 30.8405 -150.981 -0.762806 179.5
lowerback -29.2718 -1.28561 -5.89716
upperback -2.43669 -0.573637 -0.472991
thorax 12.7181 -0.923595 2.39594
lowerneck -8.4162 -2.01376 0.561553
upperneck 0.865816 -2.98137 3.3035
head 1.75029 -1.45578 0.822992
rclavicle -4.27387e-015 -3.61788e-014
rhumerus -36.9493 -19.3693 -80.1834
rradius 30.6086
rwrist -0.583724
rhand -7.00821 -50.6574
rfingers 7.12502
rthumb 18.8629 -79.7628
lclavicle -4.27387e-015 -3.61788e-014
lhumerus -29.7995 7.18767 80.2086
lradius 21.3097
lwrist -5.6924
lhand -21.2166 -13.9013
lfingers 7.12502
lthumb 5.16524 16.0158
rfemur -24.7164 5.97579 18.3066
rtibia 5.63452
rfoot -18.6478 -7.87795
rtoes -31.6965
lfemur -25.627 -9.58905 -17.4461
ltibia 7.62452
lfoot -8.69617 2.45164
ltoes -31.1783
80
root 8.80146 16.3226 30.8386 -150.984 -0.756661 179.479
lowerback -29.2394 -1.28031 -5.88391
upperback -2.44436 -0.570564 -0.502522
thorax 12.6942 -0.920578 2.35868
lowerneck -8.31186 -2.0289 0.567913
upperneck 0.750844 -3.00189 3.35439
head 1.69534 -1.46883 0.838314
rclavicle 2.98177e-016 -4.01545e-014
rhumerus -36.9761 -19.3365 -80.2246
rradius 30.6215
rwrist -0.611176
rhand -6.98109 -50.6815
rfingers 7.12502
rthumb 18.889 -79.7843
lclavicle 2.98177e-016 -4.01545e-014
lhumerus -29.831 7.12085 80.1566
lradius 21.3414
lwrist -5.5949
lhand -21.2555 -13.9793
lfingers 7.12502
lthumb 5.12761 15.9387
rfemur -24.6238 6.51329 18.1227
rtibia 5.47118
rfoot -18.5694 -8.35069
rtoes -31.1265
lfemur -25.6104 -9.60309 -17.4748
ltibia 7.616
lfoot -8.70344 2.48828
ltoes -32.057
81
root 8.80086 16.3232 30.8367 -150.997 -0.732548 179.455
lowerback -29.2005 -1.2677 -5.88409
upperback -2.45207 -0.554234 -0.528092
thorax 12.6662 -0.912088 2.33808
lowerneck -8.24208 -2.04503 0.560435
upperneck 0.66675 -3.02347 3.4093
head 1.65714 -1.48145 0.856872
rclavicle -6.95746e-016 9.54166e-015
rhumerus -36.9881 -19.2821 -80.237
rradius 30.6228
rwrist -0.677882
rhand -6.97555 -50.5991
rfingers 7.12502
rthumb 18.8943 -79.7014
lclavicle -6.95746e-016 9.54166e-015
lhumerus -29.8838 7.03008 80.1322
lradius 21.4081
lwrist -5.51213
lhand -21.3963 -14.0446
lfingers 7.12502
lthumb 4.99168 15.8766
rfemur -24.5844 6.81718 17.994
rtibia 5.42316
rfoot -18.5752 -8.53318
rtoes -30.295
lfemur -25.5775 -9.63604 -17.5045
ltibia 7.57314
lfoot -8.72564 2.5875
ltoes -32.5287
82
root 8.7988 16.3234 30.8344 -150.961 -0.661001 179.377
lowerback -29.2612 -1.27011 -5.95619
upperback -2.43624 -0.527839 -0.548159
thorax 12.7082 -0.9053 2.36396
lowerneck -8.28639 -2.03798 0.545888
upperneck 0.642738 -3.01644 3.44538
head 1.65818 -1.47819 0.870704
rclavicle 1.39149e-015 -7.55382e-015
rhumerus -36.9576 -19.2297 -80.2285
rradius 30.6454
rwrist -0.752558
rhand -6.982 -50.4548
rfingers 7.12502
rthumb 18.8881 -79.5577
lclavicle 1.39149e-015 -7.55382e-015
lhumerus -29.8329 7.18731 80.0721
lradius 21.3478
lwrist -5.60544
lhand -21.242 -14.1573
lfingers 7.12502
lthumb 5.1407 15.7603
rfemur -24.6335 6.78398 17.8861
rtibia 5.4566
rfoot -18.5947 -8.52446
rtoes -30.4325
lfemur -25.582 -9.74404 -17.5992
ltibia 7.51572
lfoot -8.69538 2.7593
ltoes -32.8783
83
root 8.79724 16.3229 30.8307 -150.938 -0.631211 179.321
lowerback -29.3313 -1.27597 -6.01419
upperback -2.41309 -0.509045 -0.558726
thorax 12.7637 -0.901245 2.38955
lowerneck -8.30492 -2.02549 0.559805
upperneck 0.596598 -3.0033 3.46133
head 1.64632 -1.47291 0.873816
rclavicle 3.57812e-015 9.14409e-015
rhumerus -36.9217 -19.1622 -80.2675
rradius 30.714
rwrist -0.850427
rhand -7.00654 -50.4085
rfingers 7.12502
rthumb 18.8645 -79.5137
lclavicle 3.57812e-015 9.14409e-015
lhumerus -29.7452 7.37926 79.9984
lradius 21.2244
lwrist -5.69769
lhand -20.8896 -14.1296
lfingers 7.12502
lthumb 5.48096 15.7795
rfemur -24.6595 6.67184 17.8393
rtibia 5.49618
rfoot -18.596 -8.53267
rtoes -30.8435
lfemur -25.5881 -9.79244 -17.6802
ltibia 7.51514
lfoot -8.68193 2.83325
ltoes -33.3639
84
root 8.79678 16.3222 30.8275 -150.94 -0.627746 179.315
lowerback -29.3635 -1.28205 -6.02173
upperback -2.38875 -0.507715 -0.56463
thorax 12.8057 -0.901253 2.38724
lowerneck -8.30404 -2.01672 0.578185
upperneck 0.56357 -2.99602 3.49622
head 1.63571 -1.46997 0.88206
rclavicle -2.68359e-015 1.07344e-014
rhumerus -36.8672 -19.101 -80.3486
rradius 30.7774
rwrist -1.08117
rhand -6.97901 -50.3848
rfingers 7.12502
rthumb 18.891 -79.4874
lclavicle -2.68359e-015 1.07344e-014
lhumerus -29.6881 7.5131 79.9288
lradius 21.1587
lwrist -5.83416
lhand -20.8283 -13.9659
lfingers 7.12502
lthumb 5.54017 15.9416
rfemur -24.6474 6.72098 17.8177
rtibia 5.53382
rfoot -18.6246 -8.59873
rtoes -31.0314
lfemur -25.5832 -9.75217 -17.7058
ltibia 7.55125
lfoot -8.73846 2.82328
ltoes -33.5946
85
root 8.79601 16.3233 30.8254 -150.963 -0.62723 179.305
lowerback -29.358 -1.28905 -6.03735
upperback -2.3575 -0.505917 -0.553983
thorax 12.8389 -0.900235 2.40826
lowerneck -8.39165 -2.00258 0.527094
upperneck 0.68185 -2.97766 3.55154
head 1.69182 -1.45624 0.908116
rclavicle 5.56597e-015 9.14409e-015
rhumerus -36.764 -19.0562 -80.3871
rradius 30.7904
rwrist -1.40879
rhand -6.89953 -50.3912
rfingers 7.12502
rthumb 18.9675 -79.4864
lclavicle 5.56597e-015 9.14409e-015
lhumerus -29.6214 7.74641 79.864
lradius 21.0751
lwrist -6.20411
lhand -20.8585 -14.001
lfingers 7.12502
lthumb 5.51093 15.9074
rfemur -24.6068 6.75053 17.805
rtibia 5.57633
rfoot -18.6826 -8.62321
rtoes -31.4846
lfemur -25.5484 -9.77028 -17.7159
ltibia 7.5569
lfoot -8.75387 2.84467
ltoes -33.7678
86
root 8.79507 16.3251 30.8233 -151.004 -0.64897 179.302
lowerback -29.312 -1.28545 -6.03744
upperback -2.35147 -0.501766 -0.543186
thorax 12.8252 -0.896735 2.42263
lowerneck -8.46755 -1.99006 0.461564
upperneck 0.900401 -2.95802 3.59034
head 1.77869 -1.43893 0.931574
rclavicle 7.35503e-015 1.86858e-014
rhumerus -36.7195 -18.986 -80.3983
rradius 30.7728
rwrist -1.58127
rhand -6.87593 -50.4408
rfingers 7.12502
rthumb 18.9901 -79.5338
lclavicle 7.35503e-015 1.86858e-014
lhumerus -29.566 8.00858 79.7838
lradius 20.9313
lwrist -6.59168
lhand -20.7729 -14.1933
lfingers 7.12502
lthumb 5.59358 15.7129
rfemur -24.5307 6.7663 17.7982
rtibia 5.55557
rfoot -18.727 -8.63593
rtoes -31.6326
lfemur -25.5111 -9.83888 -17.7084
ltibia 7.58939
lfoot -8.74886 2.82492
ltoes -33.4065
87
root 8.79463 16.3251 30.8219 -150.995 -0.642117 179.3
lowerback -29.2929 -1.27761 -6.02479
upperback -2.379 -0.500601 -0.561049
thorax 12.7849 -0.895675 2.39709
lowerneck -8.45264 -1.98194 0.469512
upperneck 0.971342 -2.94913 3.61458
head 1.79951 -1.43207 0.938317
rclavicle -2.5842e-015 3.61788e-014
rhumerus -36.7575 -19.0538 -80.3808
rradius 30.7351
rwrist -1.52432
rhand -6.87458 -50.4028
rfingers 7.12502
rthumb 18.9914 -79.4956
lclavicle -2.5842e-015 3.61788e-014
lhumerus -29.5627 8.03326 79.7171
lradius 20.8594
lwrist -6.61977
lhand -20.747 -14.327
lfingers 7.12502
lthumb 5.61863 15.5785
rfemur -24.5401 6.88366 17.7483
rtibia 5.54795
rfoot -18.7377 -8.70533
rtoes -31.2463
lfemur -25.5316 -9.99601 -17.6639
ltibia 7.61691
lfoot -8.76589 2.90106
ltoes -32.4916
88
root 8.79442 16.3246 30.8212 -150.957 -0.629948 179.311
lowerback -29.2606 -1.26692 -6.00834
upperback -2.42544 -0.502458 -0.570369
thorax 12.7174 -0.896076 2.37772
lowerneck -8.40656 -1.98454 0.508752
upperneck 0.87203 -2.95587 3.61741
head 1.75813 -1.43859 0.932669
rclavicle -9.93923e-017 0
rhumerus -36.791 -19.2392 -80.3164
rradius 30.6565
rwrist -1.37846
rhand -6.83333 -50.2699
rfingers 7.12502
rthumb 19.0311 -79.3588
lclavicle -9.93923e-017 0
lhumerus -29.6458 7.70302 79.7508
lradius 20.9484
lwrist -6.22962
lhand -20.8108 -14.235
lfingers 7.12502
lthumb 5.55698 15.6722
rfemur -24.6091 7.02957 17.7084
rtibia 5.56903
rfoot -18.7243 -8.78363
rtoes -30.8861
lfemur -25.5689 -10.1175 -17.605
ltibia 7.60508
lfoot -8.768 3.01977
ltoes -32.2561
89
root 8.794 16.3238 30.8199 -150.948 -0.627778 179.299
lowerback -29.213 -1.2591 -6.00831
upperback -2.44068 -0.496219 -0.576827
thorax 12.6781 -0.892199 2.37397
lowerneck -8.46652 -1.9871 0.495901
upperneck 0.843194 -2.96143 3.63742
head 1.76021 -1.44193 0.940544
rclavicle 6.4605e-015 -4.13472e-014
rhumerus -36.7923 -19.2609 -80.3107
rradius 30.6469
rwrist -1.36756
rhand -6.77762 -50.2036
rfingers 7.12502
rthumb 19.0847 -79.2872
lclavicle 6.4605e-015 -4.13472e-014
lhumerus -29.7019 7.39304 79.8297
lradius 21.0561
lwrist -5.884
lhand -21.0475 -13.9252
lfingers 7.12502
lthumb 5.32849 15.9878
rfemur -24.6215 7.05159 17.6875
rtibia 5.56092
rfoot -18.6986 -8.83945
rtoes -31.1039
lfemur -25.5884 -10.0796 -17.6464
ltibia 7.63585
lfoot -8.76323 3.04994
ltoes -33.6459
90
root 8.79315 16.3233 30.8166 -150.972 -0.631234 179.228
lowerback -29.1814 -1.26052 -6.04713
upperback -2.43141 -0.481126 -0.609343
thorax 12.6725 -0.885923 2.36619
lowerneck -8.56358 -1.96502 0.455302
upperneck 0.981266 -2.93065 3.63718
head 1.82315 -1.42213 0.947836
rclavicle 3.18055e-015 -1.27222e-014
rhumerus -36.8324 -19.1781 -80.3564
rradius 30.7282
rwrist -1.43821
rhand -6.77674 -50.2803
rfingers 7.12502
rthumb 19.0855 -79.3639
lclavicle 3.18055e-015 -1.27222e-014
lhumerus -29.7016 7.27007 79.8597
lradius 21.0888
lwrist -5.81598
lhand -21.3302 -13.6689
lfingers 7.12502
lthumb 5.05557 16.2508
rfemur -24.5716 6.75277 17.701
rtibia 5.59424
rfoot -18.7199 -8.72047
rtoes -31.6743
lfemur -25.5306 -10.1686 -17.7406
ltibia 7.60552
lfoot -8.73827 3.15356
ltoes -34.6808
